<svg width="22" height="25" viewBox="0 0 22 25" fill="none" xmlns="http://www.w3.org/2000/svg"><path d="M19.27 4.813a.242.242 0 0 0-.218-.204 181.08 181.08 0 0 0-1.866-.034s-1.483-1.446-1.63-1.593c-.146-.147-.431-.102-.544-.07-.002 0-.28.086-.745.232a5.162 5.162 0 0 0-.358-.88C13.38 1.254 12.606.72 11.672.718h-.004c-.064 0-.129.006-.195.012-.028-.033-.054-.067-.084-.097-.408-.437-.93-.65-1.556-.63-1.208.031-2.41.907-3.383 2.46-.687 1.093-1.208 2.468-1.357 3.53l-2.377.738c-.7.22-.721.241-.814.903C1.831 8.135 0 22.337 0 22.337L15.348 25 22 23.341c.002.002-2.713-18.401-2.73-18.528Zm-5.773-1.43c-.354.11-.756.234-1.192.371-.008-.612-.082-1.467-.368-2.203.919.171 1.369 1.212 1.56 1.832Zm-1.994.62-2.562.795c.247-.95.717-1.898 1.294-2.517.215-.23.515-.488.87-.635.334.697.406 1.687.398 2.356ZM9.86.804c.284-.006.523.057.726.192-.326.17-.641.413-.939.732-.767.824-1.354 2.106-1.59 3.342l-2.103.653C6.369 3.78 7.994.86 9.859.805Z" fill="#FFA801"/><path d="m11.664 8.04-.772 2.898s-.862-.393-1.883-.329c-1.497.095-1.513 1.043-1.499 1.28.083 1.297 3.483 1.58 3.674 4.617.15 2.388-1.264 4.023-3.3 4.152-2.444.155-3.79-1.292-3.79-1.292l.518-2.212s1.355 1.026 2.44.956c.707-.044.96-.623.936-1.032-.106-1.691-2.875-1.592-3.05-4.37C4.79 10.37 6.322 7.999 9.7 7.785c1.296-.078 1.963.254 1.963.254Z" fill="#fff"/><path d="M19.051 4.61c-.09-.009-1.865-.035-1.865-.035s-1.483-1.445-1.63-1.593a.365.365 0 0 0-.206-.094V25L22 23.341 19.268 4.813a.242.242 0 0 0-.217-.204Z" fill="#C28102"/></svg>